<svg xmlns="http://www.w3.org/2000/svg" width="101" height="101.796" viewBox="0 0 101 101.796"><defs><style>.a,.d{fill:#fff;}.a{opacity:0;}.b{fill:#d8dce1;}.c{fill:#1a54b0;}.e{fill:#5c546a;}.f{fill:#14a5a0;}</style></defs><g transform="translate(738.163 -415.567)"><rect class="a" width="101" height="101" transform="translate(-738.163 415.567)"/><g transform="translate(-738.001 417.154)"><g transform="translate(0 0)"><g transform="translate(0 25.253)"><path class="b" d="M0,134v66.809a8,8,0,0,0,7.829,8.148H92.384a8,8,0,0,0,7.829-8.148V134Z" transform="translate(0.001 -134)"/></g><g transform="translate(0 2.44)"><path class="c" d="M92.384,22H7.829A8,8,0,0,0,0,30.148V44.813H100.218V30.148A8,8,0,0,0,92.384,22ZM12.527,38.3a4.892,4.892,0,0,1,0-9.776,4.892,4.892,0,0,1,0,9.776Zm75.16,0a4.892,4.892,0,1,1,4.7-4.889,4.794,4.794,0,0,1-4.7,4.889Z" transform="translate(0.001 -22)"/></g><g transform="translate(12.008 39.914)"><g transform="translate(31.316 0)"><path class="d" d="M230.328,206a6.523,6.523,0,1,0,6.263,6.518A6.4,6.4,0,0,0,230.328,206Z" transform="translate(-223.544 -205.995)"/></g><g transform="translate(15.658 0)"><path class="d" d="M150.328,206a6.523,6.523,0,1,0,6.263,6.518A6.4,6.4,0,0,0,150.328,206Z" transform="translate(-143.544 -205.995)"/></g><g transform="translate(0 0)"><path class="d" d="M70.328,206a6.523,6.523,0,1,0,6.263,6.518A6.4,6.4,0,0,0,70.328,206Z" transform="translate(-63.544 -205.995)"/></g><g transform="translate(46.974 0)"><path class="d" d="M310.328,206a6.523,6.523,0,1,0,6.263,6.518A6.4,6.4,0,0,0,310.328,206Z" transform="translate(-303.544 -205.995)"/></g><g transform="translate(63.153 0)"><path class="d" d="M390.263,219.037A6.523,6.523,0,1,0,384,212.518,6.4,6.4,0,0,0,390.263,219.037Z" transform="translate(-383.999 -205.995)"/></g><g transform="translate(31.316 16.295)"><path class="d" d="M230.328,286a6.523,6.523,0,1,0,6.263,6.518A6.4,6.4,0,0,0,230.328,286Z" transform="translate(-223.544 -285.995)"/></g><g transform="translate(15.658 16.295)"><path class="d" d="M150.328,286a6.523,6.523,0,1,0,6.263,6.518A6.4,6.4,0,0,0,150.328,286Z" transform="translate(-143.544 -285.995)"/></g><g transform="translate(0 16.295)"><path class="d" d="M70.328,286a6.523,6.523,0,1,0,6.263,6.518A6.4,6.4,0,0,0,70.328,286Z" transform="translate(-63.544 -285.995)"/></g><g transform="translate(46.974 16.295)"><path class="d" d="M310.328,286a6.523,6.523,0,1,0,6.263,6.518A6.4,6.4,0,0,0,310.328,286Z" transform="translate(-303.544 -285.995)"/></g><g transform="translate(62.634 16.295)"><path class="d" d="M390.328,286a6.523,6.523,0,1,0,6.263,6.518A6.4,6.4,0,0,0,390.328,286Z" transform="translate(-383.544 -285.995)"/></g><g transform="translate(31.316 32.59)"><path class="d" d="M230.328,366a6.523,6.523,0,1,0,6.263,6.518A6.4,6.4,0,0,0,230.328,366Z" transform="translate(-223.544 -365.995)"/></g><g transform="translate(15.658 32.59)"><path class="d" d="M150.328,366a6.523,6.523,0,1,0,6.263,6.518A6.4,6.4,0,0,0,150.328,366Z" transform="translate(-143.544 -365.995)"/></g><g transform="translate(0 32.59)"><path class="d" d="M70.328,366a6.523,6.523,0,1,0,6.263,6.518A6.4,6.4,0,0,0,70.328,366Z" transform="translate(-63.544 -365.995)"/></g><g transform="translate(46.974 32.59)"><path class="d" d="M310.328,366a6.523,6.523,0,1,0,6.263,6.518A6.4,6.4,0,0,0,310.328,366Z" transform="translate(-303.544 -365.995)"/></g><g transform="translate(62.634 32.59)"><path class="d" d="M390.328,366a6.523,6.523,0,1,0,6.263,6.518A6.4,6.4,0,0,0,390.328,366Z" transform="translate(-383.544 -365.995)"/></g></g><g transform="translate(10.178 0)"><g transform="translate(0)"><path class="e" d="M54.349,26.295A2.4,2.4,0,0,1,52,23.85V12.443a2.35,2.35,0,1,1,4.7,0V23.85a2.4,2.4,0,0,1-2.348,2.445Z" transform="translate(-51.998 -10.003)"/></g></g><g transform="translate(85.338 0)"><g transform="translate(0)"><path class="e" d="M438.349,26.295A2.4,2.4,0,0,1,436,23.85V12.443a2.35,2.35,0,1,1,4.7,0V23.85A2.4,2.4,0,0,1,438.349,26.295Z" transform="translate(-435.998 -10.003)"/></g></g><g transform="translate(12.529 39.919)"><ellipse class="f" cx="6.263" cy="6.518" rx="6.263" ry="6.518" transform="translate(0 0)"/></g><g transform="translate(43.845 72.508)"><ellipse class="f" cx="6.263" cy="6.518" rx="6.263" ry="6.518" transform="translate(0 0)"/></g><g transform="translate(59.503 56.213)"><ellipse class="f" cx="6.263" cy="6.518" rx="6.263" ry="6.518" transform="translate(0 0)"/></g></g></g></g></svg>